# xmcd
#
# Track frame offsets:
#	150
#	33052
#	66601
#	96281
#	121658
#	151582
#	197217
#	231991
#	266613
#	313430
#
# Disc length: 4476 seconds
#
# Revision: 1
# Processed by: cddbd v1.5.1PL0 Copyright (c) Steve Scherf et al.
# Submitted via: CDex 1.50Beta5
#
DISCID=88117a0a
DTITLE=bird - LIVE!tour 2000+1
DYEAR=2001
DGENRE=Rock
TTITLE0=オアシス
TTITLE1=SOULS
TTITLE2=空の瞳
TTITLE3=満ちてゆく唇
TTITLE4=4PM
TTITLE5=GAME
TTITLE6=マインドトラベル
TTITLE7=9月の想い
TTITLE8=LIFE
TTITLE9=桜
EXTD=
EXTT0=
EXTT1=
EXTT2=
EXTT3=
EXTT4=
EXTT5=
EXTT6=
EXTT7=
EXTT8=
EXTT9=
PLAYORDER=
